<mxfile host="app.diagrams.net" agent="Mozilla/5.0 (Windows NT 10.0; Win64; x64) AppleWebKit/537.36 (KHTML, like Gecko) Chrome/135.0.0.0 Safari/537.36" version="26.2.14">
  <diagram name="Page-1" id="q0i8V5-TRBjmgpE3Fjk2">
    <mxGraphModel dx="1042" dy="658" grid="1" gridSize="10" guides="1" tooltips="1" connect="1" arrows="1" fold="1" page="1" pageScale="1" pageWidth="850" pageHeight="1100" math="0" shadow="0">
      <root>
        <mxCell id="0" />
        <mxCell id="1" parent="0" />
        <mxCell id="C0Q12j2uL-lrNPzdWGRN-1" value="" style="rounded=0;whiteSpace=wrap;html=1;" vertex="1" parent="1">
          <mxGeometry x="80" y="180" width="180" height="340" as="geometry" />
        </mxCell>
        <mxCell id="C0Q12j2uL-lrNPzdWGRN-2" value="" style="rounded=0;whiteSpace=wrap;html=1;" vertex="1" parent="1">
          <mxGeometry x="380" y="180" width="200" height="340" as="geometry" />
        </mxCell>
        <mxCell id="C0Q12j2uL-lrNPzdWGRN-3" value="" style="rounded=0;whiteSpace=wrap;html=1;" vertex="1" parent="1">
          <mxGeometry x="690" y="180" width="210" height="340" as="geometry" />
        </mxCell>
        <mxCell id="C0Q12j2uL-lrNPzdWGRN-4" value="" style="rounded=0;whiteSpace=wrap;html=1;direction=east;" vertex="1" parent="1">
          <mxGeometry x="75" y="550" width="190" height="290" as="geometry" />
        </mxCell>
        <mxCell id="C0Q12j2uL-lrNPzdWGRN-5" value="" style="endArrow=none;html=1;rounded=0;exitX=0;exitY=0.25;exitDx=0;exitDy=0;entryX=1;entryY=0.25;entryDx=0;entryDy=0;" edge="1" parent="1" source="C0Q12j2uL-lrNPzdWGRN-4" target="C0Q12j2uL-lrNPzdWGRN-4">
          <mxGeometry width="50" height="50" relative="1" as="geometry">
            <mxPoint x="400" y="470" as="sourcePoint" />
            <mxPoint x="450" y="420" as="targetPoint" />
          </mxGeometry>
        </mxCell>
        <mxCell id="C0Q12j2uL-lrNPzdWGRN-10" value="" style="endArrow=none;html=1;rounded=0;exitX=0;exitY=0.25;exitDx=0;exitDy=0;entryX=1;entryY=0.25;entryDx=0;entryDy=0;" edge="1" parent="1" source="C0Q12j2uL-lrNPzdWGRN-2" target="C0Q12j2uL-lrNPzdWGRN-2">
          <mxGeometry width="50" height="50" relative="1" as="geometry">
            <mxPoint x="400" y="470" as="sourcePoint" />
            <mxPoint x="450" y="420" as="targetPoint" />
          </mxGeometry>
        </mxCell>
        <mxCell id="C0Q12j2uL-lrNPzdWGRN-11" value="" style="endArrow=none;html=1;rounded=0;exitX=0;exitY=0.25;exitDx=0;exitDy=0;entryX=1;entryY=0.25;entryDx=0;entryDy=0;" edge="1" parent="1" source="C0Q12j2uL-lrNPzdWGRN-3" target="C0Q12j2uL-lrNPzdWGRN-3">
          <mxGeometry width="50" height="50" relative="1" as="geometry">
            <mxPoint x="740" y="260" as="sourcePoint" />
            <mxPoint x="790" y="210" as="targetPoint" />
          </mxGeometry>
        </mxCell>
        <mxCell id="C0Q12j2uL-lrNPzdWGRN-13" value="" style="endArrow=classic;html=1;rounded=0;exitX=1.004;exitY=0.401;exitDx=0;exitDy=0;exitPerimeter=0;entryX=0.002;entryY=0.401;entryDx=0;entryDy=0;entryPerimeter=0;" edge="1" parent="1" source="C0Q12j2uL-lrNPzdWGRN-1" target="C0Q12j2uL-lrNPzdWGRN-2">
          <mxGeometry width="50" height="50" relative="1" as="geometry">
            <mxPoint x="290" y="350" as="sourcePoint" />
            <mxPoint x="390" y="272" as="targetPoint" />
          </mxGeometry>
        </mxCell>
        <mxCell id="C0Q12j2uL-lrNPzdWGRN-14" value="" style="endArrow=classic;html=1;rounded=0;exitX=0;exitY=0.75;exitDx=0;exitDy=0;entryX=1;entryY=0.75;entryDx=0;entryDy=0;" edge="1" parent="1" source="C0Q12j2uL-lrNPzdWGRN-2" target="C0Q12j2uL-lrNPzdWGRN-1">
          <mxGeometry width="50" height="50" relative="1" as="geometry">
            <mxPoint x="301" y="282" as="sourcePoint" />
            <mxPoint x="390" y="282" as="targetPoint" />
          </mxGeometry>
        </mxCell>
        <mxCell id="C0Q12j2uL-lrNPzdWGRN-15" value="" style="endArrow=classic;html=1;rounded=0;exitX=0.994;exitY=0.382;exitDx=0;exitDy=0;exitPerimeter=0;entryX=0.004;entryY=0.387;entryDx=0;entryDy=0;entryPerimeter=0;" edge="1" parent="1" source="C0Q12j2uL-lrNPzdWGRN-2" target="C0Q12j2uL-lrNPzdWGRN-3">
          <mxGeometry width="50" height="50" relative="1" as="geometry">
            <mxPoint x="580" y="270" as="sourcePoint" />
            <mxPoint x="669" y="270" as="targetPoint" />
          </mxGeometry>
        </mxCell>
        <mxCell id="C0Q12j2uL-lrNPzdWGRN-16" value="" style="endArrow=classic;html=1;rounded=0;exitX=0;exitY=0.75;exitDx=0;exitDy=0;entryX=1;entryY=0.75;entryDx=0;entryDy=0;" edge="1" parent="1" source="C0Q12j2uL-lrNPzdWGRN-3" target="C0Q12j2uL-lrNPzdWGRN-2">
          <mxGeometry width="50" height="50" relative="1" as="geometry">
            <mxPoint x="690" y="340" as="sourcePoint" />
            <mxPoint x="630" y="300" as="targetPoint" />
          </mxGeometry>
        </mxCell>
        <mxCell id="C0Q12j2uL-lrNPzdWGRN-21" value="" style="endArrow=open;endFill=1;endSize=12;html=1;rounded=0;exitX=-0.014;exitY=0.895;exitDx=0;exitDy=0;exitPerimeter=0;entryX=1;entryY=0.542;entryDx=0;entryDy=0;entryPerimeter=0;" edge="1" parent="1" source="C0Q12j2uL-lrNPzdWGRN-2" target="C0Q12j2uL-lrNPzdWGRN-4">
          <mxGeometry width="160" relative="1" as="geometry">
            <mxPoint x="340" y="400" as="sourcePoint" />
            <mxPoint x="340" y="600" as="targetPoint" />
            <Array as="points">
              <mxPoint x="340" y="484" />
              <mxPoint x="340" y="707" />
            </Array>
          </mxGeometry>
        </mxCell>
        <mxCell id="C0Q12j2uL-lrNPzdWGRN-26" value="Web Browser&lt;div&gt;(Client Layer)&lt;/div&gt;" style="text;html=1;align=center;verticalAlign=middle;resizable=0;points=[];autosize=1;strokeColor=none;fillColor=none;" vertex="1" parent="1">
          <mxGeometry x="120" y="190" width="100" height="40" as="geometry" />
        </mxCell>
        <mxCell id="C0Q12j2uL-lrNPzdWGRN-27" value="&lt;br&gt;&lt;span style=&quot;color: rgb(255, 255, 255); font-family: Helvetica; font-size: 12px; font-style: normal; font-variant-ligatures: normal; font-variant-caps: normal; font-weight: 400; letter-spacing: normal; orphans: 2; text-align: center; text-indent: 0px; text-transform: none; widows: 2; word-spacing: 0px; -webkit-text-stroke-width: 0px; white-space: nowrap; background-color: rgb(27, 29, 30); text-decoration-thickness: initial; text-decoration-style: initial; text-decoration-color: initial; float: none; display: inline !important;&quot;&gt;Web Browser&lt;/span&gt;&lt;div style=&quot;forced-color-adjust: none; color: rgb(255, 255, 255); font-family: Helvetica; font-size: 12px; font-style: normal; font-variant-ligatures: normal; font-variant-caps: normal; font-weight: 400; letter-spacing: normal; orphans: 2; text-align: center; text-indent: 0px; text-transform: none; widows: 2; word-spacing: 0px; -webkit-text-stroke-width: 0px; white-space: nowrap; background-color: rgb(27, 29, 30); text-decoration-thickness: initial; text-decoration-style: initial; text-decoration-color: initial; box-shadow: none !important;&quot;&gt;(Server Layer)&lt;/div&gt;&lt;div&gt;&lt;br/&gt;&lt;/div&gt;" style="text;html=1;align=center;verticalAlign=middle;resizable=0;points=[];autosize=1;strokeColor=none;fillColor=none;" vertex="1" parent="1">
          <mxGeometry x="425" y="175" width="100" height="70" as="geometry" />
        </mxCell>
        <mxCell id="C0Q12j2uL-lrNPzdWGRN-29" value="Databae&lt;div&gt;(Database Layer)&lt;/div&gt;" style="text;html=1;align=center;verticalAlign=middle;resizable=0;points=[];autosize=1;strokeColor=none;fillColor=none;" vertex="1" parent="1">
          <mxGeometry x="735" y="190" width="120" height="40" as="geometry" />
        </mxCell>
        <mxCell id="C0Q12j2uL-lrNPzdWGRN-30" value="Sends Requests" style="text;html=1;align=center;verticalAlign=middle;resizable=0;points=[];autosize=1;strokeColor=none;fillColor=none;" vertex="1" parent="1">
          <mxGeometry x="265" y="290" width="110" height="30" as="geometry" />
        </mxCell>
        <mxCell id="C0Q12j2uL-lrNPzdWGRN-31" value="Sends Responses" style="text;html=1;align=center;verticalAlign=middle;resizable=0;points=[];autosize=1;strokeColor=none;fillColor=none;" vertex="1" parent="1">
          <mxGeometry x="260" y="410" width="120" height="30" as="geometry" />
        </mxCell>
        <mxCell id="C0Q12j2uL-lrNPzdWGRN-34" value="" style="endArrow=none;html=1;rounded=0;exitX=0;exitY=0.25;exitDx=0;exitDy=0;entryX=1;entryY=0.25;entryDx=0;entryDy=0;" edge="1" parent="1" source="C0Q12j2uL-lrNPzdWGRN-1" target="C0Q12j2uL-lrNPzdWGRN-1">
          <mxGeometry width="50" height="50" relative="1" as="geometry">
            <mxPoint x="400" y="470" as="sourcePoint" />
            <mxPoint x="450" y="420" as="targetPoint" />
          </mxGeometry>
        </mxCell>
        <mxCell id="C0Q12j2uL-lrNPzdWGRN-35" value="" style="rounded=0;whiteSpace=wrap;html=1;" vertex="1" parent="1">
          <mxGeometry x="110" y="275" width="120" height="60" as="geometry" />
        </mxCell>
        <mxCell id="C0Q12j2uL-lrNPzdWGRN-36" value="" style="rounded=0;whiteSpace=wrap;html=1;" vertex="1" parent="1">
          <mxGeometry x="110" y="350" width="120" height="60" as="geometry" />
        </mxCell>
        <mxCell id="C0Q12j2uL-lrNPzdWGRN-37" value="" style="rounded=0;whiteSpace=wrap;html=1;" vertex="1" parent="1">
          <mxGeometry x="110" y="430" width="120" height="60" as="geometry" />
        </mxCell>
        <mxCell id="C0Q12j2uL-lrNPzdWGRN-38" value="" style="rounded=0;whiteSpace=wrap;html=1;" vertex="1" parent="1">
          <mxGeometry x="415" y="275" width="120" height="60" as="geometry" />
        </mxCell>
        <mxCell id="C0Q12j2uL-lrNPzdWGRN-39" value="" style="rounded=0;whiteSpace=wrap;html=1;" vertex="1" parent="1">
          <mxGeometry x="415" y="350" width="120" height="60" as="geometry" />
        </mxCell>
        <mxCell id="C0Q12j2uL-lrNPzdWGRN-40" value="" style="rounded=0;whiteSpace=wrap;html=1;" vertex="1" parent="1">
          <mxGeometry x="415" y="430" width="120" height="60" as="geometry" />
        </mxCell>
        <mxCell id="C0Q12j2uL-lrNPzdWGRN-41" value="" style="rounded=0;whiteSpace=wrap;html=1;" vertex="1" parent="1">
          <mxGeometry x="730" y="280" width="120" height="60" as="geometry" />
        </mxCell>
        <mxCell id="C0Q12j2uL-lrNPzdWGRN-42" value="" style="rounded=0;whiteSpace=wrap;html=1;" vertex="1" parent="1">
          <mxGeometry x="730" y="360" width="120" height="60" as="geometry" />
        </mxCell>
        <mxCell id="C0Q12j2uL-lrNPzdWGRN-43" value="" style="rounded=0;whiteSpace=wrap;html=1;" vertex="1" parent="1">
          <mxGeometry x="730" y="440" width="120" height="60" as="geometry" />
        </mxCell>
        <mxCell id="C0Q12j2uL-lrNPzdWGRN-44" value="Student&lt;div&gt;(Interface)&lt;/div&gt;" style="text;html=1;align=center;verticalAlign=middle;resizable=0;points=[];autosize=1;strokeColor=none;fillColor=none;" vertex="1" parent="1">
          <mxGeometry x="130" y="285" width="80" height="40" as="geometry" />
        </mxCell>
        <mxCell id="C0Q12j2uL-lrNPzdWGRN-45" value="Faculty&lt;br&gt;&lt;div&gt;(Interface)&lt;/div&gt;" style="text;html=1;align=center;verticalAlign=middle;resizable=0;points=[];autosize=1;strokeColor=none;fillColor=none;" vertex="1" parent="1">
          <mxGeometry x="130" y="360" width="80" height="40" as="geometry" />
        </mxCell>
        <mxCell id="C0Q12j2uL-lrNPzdWGRN-46" value="Admin&lt;br&gt;&lt;div&gt;(Interface)&lt;/div&gt;" style="text;html=1;align=center;verticalAlign=middle;resizable=0;points=[];autosize=1;strokeColor=none;fillColor=none;" vertex="1" parent="1">
          <mxGeometry x="130" y="440" width="80" height="40" as="geometry" />
        </mxCell>
      </root>
    </mxGraphModel>
  </diagram>
</mxfile>
